{"title":"Luke Bryan - Strip It Down (2015.Bro-country)","uid":12552722,"size":92879603,"categoryP":"video","categoryS":"music_videos","magnet":"?xt=urn:btih:9cedce096cf5d25bd0a26224b9d4fc746b629c10&amp;dn=Luke+Bryan+-+Strip+It+Down+%282015.Bro-country%29&amp;tr=udp%3A%2F%2Ftracker.leechers-paradise.org%3A6969&amp;tr=udp%3A%2F%2Fzer0day.ch%3A1337&amp;tr=udp%3A%2F%2Fopen.demonii.com%3A1337&amp;tr=udp%3A%2F%2Ftracker.coppersurfer.tk%3A6969&amp;tr=udp%3A%2F%2Fexodus.desync.com%3A6969","seeders":0,"leechers":1,"uploader":"MeRaDil","files":1,"time":1444583337,"description":"LUKE BRYAN - STRIP IT DOWN\r\n\r\n \nhttp://gifyu.com/images/LukeBryan-02.png\r\n \nhttp://gifyu.com/images/LukeBryan-03.png\r\n\r\n\r\nMEDIA INFO\r\nGeneral\r\nLuke Bryan - Strip It Down\r\nFormat                                   : MPEG-4\r\nFormat profile                           : Base Media\r\nCodec ID                                 : isom\r\nFile size                                : 88.6 MiB\r\nDuration                                 : 4mn 38s\r\nOverall bit rate                         : 2 664 Kbps\r\nMusicVid name                            : Strip It Down\r\nAlbum                                    : Kill The Lights\r\nPerformer                                : Luke Bryan\r\nGenre                                    : Bro-country\r\nContentType                              : Music Video\r\nRecorded date                            : 2015\r\nMake                                     : MeRaDil\r\nRelease date                             : USA - october 8 - 2015\r\n\r\nVideo\r\nID                                       : 1\r\nFormat                                   : AVC\r\nFormat/Info                              : Advanced Video Codec\r\nFormat profile                           :   \r\nFormat settings, CABAC                   : Yes\r\nFormat settings, ReFrames                : 2 frames\r\nCodec ID                                 : avc1\r\nCodec ID/Info                            : Advanced Video Coding\r\nDuration                                 : 4mn 38s\r\nBit rate                                 : 2 401 Kbps\r\nWidth                                    : 1 920 pixels\r\nHeight                                   : 1 080 pixels\r\nDisplay aspect ratio                     : 16:9\r\nFrame rate mode                          : Variable\r\nFrame rate                               : 23.976 fps\r\nMinimum frame rate                       : 23.974 fps\r\nMaximum frame rate                       : 23.981 fps\r\nColor space                              : YUV\r\nChroma subsampling                       : 4:2:0\r\nBit depth                                : 8 bits\r\nScan type                                : Progressive\r\nBits/(Pixel*Frame)                       : 0.048\r\nStream size                              : 79.8 MiB (90%)\r\n\r\nAudio\r\nID                                       : 2\r\nFormat                                   : AAC\r\nFormat/Info                              : Advanced Audio Codec\r\nFormat profile                           : LC\r\nCodec ID                                 : 40\r\nDuration                                 : 4mn 38s\r\nBit rate mode                            : Constant\r\nBit rate                                 : 256 Kbps\r\nChannel(s)                               : 2 channels\r\nChannel positions                        : Front: L R\r\nSampling rate                            : 44.1 KHz\r\nCompression mode                         : Lossy\r\nStream size                              : 8.51 MiB (10%)\r\n \nhttps://thepiratebay.gd/user/MeRaDil\r\n\r\nLuke Bryan * Kill The Lights * Country * Promo","torrent":{"xt":"urn:btih:9cedce096cf5d25bd0a26224b9d4fc746b629c10","amp;dn":"Luke+Bryan+-+Strip+It+Down+%282015.Bro-country%29","amp;tr":["udp%3A%2F%2Ftracker.leechers-paradise.org%3A6969","udp%3A%2F%2Fzer0day.ch%3A1337","udp%3A%2F%2Fopen.demonii.com%3A1337","udp%3A%2F%2Ftracker.coppersurfer.tk%3A6969","udp%3A%2F%2Fexodus.desync.com%3A6969"],"infoHash":"9cedce096cf5d25bd0a26224b9d4fc746b629c10","infoHashBuffer":{"type":"Buffer","data":[156,237,206,9,108,245,210,91,208,162,98,36,185,212,252,116,107,98,156,16]},"announce":[],"urlList":[]}}